<?xml version="1.0" standalone="no"?>
<!DOCTYPE svg PUBLIC "-//W3C//DTD SVG 20010904//EN"
 "http://www.w3.org/TR/2001/REC-SVG-20010904/DTD/svg10.dtd">
<svg version="1.0" xmlns="http://www.w3.org/2000/svg"
 width="1252.000000pt" height="1252.000000pt" viewBox="0 0 1252.000000 1252.000000"
 preserveAspectRatio="xMidYMid meet">
<metadata>
Created by potrace 1.11, written by Peter Selinger 2001-2013
</metadata>
<g transform="translate(0.000000,1252.000000) scale(0.100000,-0.100000)"
fill="#000000" stroke="none">
<path d="M0 6260 l0 -3770 6260 0 6260 0 0 3770 0 3770 -6260 0 -6260 0 0
-3770z m10035 789 c20 -19 20 -36 25 -722 4 -517 8 -709 17 -729 17 -37 55
-54 138 -61 61 -6 73 -10 98 -37 39 -44 38 -101 -3 -142 -31 -30 -31 -30 -123
-26 -174 8 -273 79 -313 225 -18 64 -19 113 -19 760 0 686 0 692 21 720 11 15
32 31 45 35 36 10 91 -1 114 -23z m-7400 -203 c30 -30 38 -71 33 -174 l-3 -82
145 0 c177 0 212 -8 234 -54 19 -40 20 -53 5 -95 -17 -50 -38 -56 -217 -61
l-163 -5 0 -336 c1 -277 3 -343 16 -379 30 -84 69 -108 199 -120 112 -11 123
-15 141 -51 23 -44 19 -93 -11 -128 -25 -30 -29 -31 -104 -31 -195 0 -333 70
-401 202 -43 83 -49 145 -49 506 l0 342 -86 0 c-81 0 -87 1 -115 29 -38 39
-41 106 -5 147 21 26 30 28 115 32 l91 4 0 115 c0 108 1 115 25 138 34 35 115
36 150 1z m1447 -266 c151 -17 244 -66 308 -162 60 -90 72 -139 77 -324 5
-160 5 -160 -20 -190 l-25 -29 -461 -3 -461 -3 0 -62 c0 -85 25 -176 58 -210
48 -50 105 -59 359 -55 287 4 293 6 349 131 21 48 63 71 116 64 63 -8 81 -31
76 -98 -9 -126 -99 -232 -237 -280 -60 -21 -88 -23 -303 -27 -265 -4 -309 1
-416 53 -112 53 -176 152 -202 307 -13 80 -13 444 0 522 16 102 39 162 79 216
64 85 153 133 279 149 95 12 322 13 424 1z m1036 -26 c18 -21 22 -37 22 -94
l0 -68 53 51 c96 93 210 137 365 140 80 2 85 1 108 -26 35 -41 34 -109 -4
-146 -25 -25 -36 -28 -125 -35 -187 -13 -313 -74 -370 -180 -21 -40 -22 -53
-27 -429 l-5 -389 -28 -24 c-39 -33 -105 -33 -144 0 l-28 24 -3 563 c-2 420 1
571 9 593 25 59 131 72 177 20z m1023 26 c44 -12 64 -47 62 -107 l-2 -44 59
55 c36 33 80 62 112 74 113 42 328 36 434 -12 53 -24 119 -84 130 -118 4 -13
19 -2 72 51 50 50 80 72 117 85 67 22 230 31 336 18 161 -20 248 -72 302 -179
48 -95 52 -137 52 -596 l0 -429 -28 -24 c-22 -18 -40 -24 -78 -24 -53 0 -84
20 -94 62 -2 13 -6 203 -7 423 -3 361 -5 404 -21 440 -45 101 -115 130 -296
123 -137 -5 -197 -27 -236 -87 -40 -59 -45 -121 -45 -518 0 -450 2 -443 -105
-443 -32 0 -52 7 -72 24 l-28 24 -5 424 -5 424 -26 49 c-18 36 -38 57 -70 75
-41 23 -54 25 -179 25 -106 0 -145 -4 -182 -18 -56 -22 -103 -72 -117 -124 -7
-24 -11 -186 -11 -426 0 -412 -3 -442 -48 -466 -12 -6 -41 -11 -67 -11 -35 0
-51 6 -70 25 l-25 24 0 574 c0 561 0 575 20 600 18 22 34 30 75 36 6 0 26 -4
46 -9z m2834 0 c122 -14 234 -67 286 -137 93 -124 99 -161 99 -652 l0 -399
-26 -31 c-22 -27 -32 -31 -74 -31 -69 0 -101 29 -108 98 l-5 52 -42 -39 c-95
-88 -181 -111 -411 -111 -228 0 -310 23 -388 111 -71 78 -103 198 -93 343 12
159 65 261 165 314 89 47 135 52 469 52 l306 0 -7 43 c-9 57 -42 122 -71 141
-48 32 -135 46 -275 46 -148 0 -243 -11 -286 -32 -16 -7 -44 -36 -64 -65 -50
-74 -104 -92 -170 -58 -52 27 -52 91 0 183 53 91 163 152 312 171 91 12 279
12 383 1z"/>
<path d="M3663 6370 c-57 -12 -100 -36 -119 -66 -21 -31 -44 -126 -44 -181 l0
-43 380 0 380 0 0 53 c-1 119 -34 187 -109 220 -41 18 -69 21 -246 23 -110 2
-219 -1 -242 -6z"/>
<path d="M8494 5920 c-51 -26 -65 -54 -71 -151 -8 -105 9 -172 51 -202 30 -21
39 -22 246 -22 202 0 219 2 273 24 32 12 74 38 93 57 52 53 64 92 64 210 l0
104 -307 0 c-289 0 -310 -1 -349 -20z"/>
</g>
</svg>
